<svg width="450" height="660" viewBox="0 0 450 660" fill="none" xmlns="http://www.w3.org/2000/svg">
<g filter="url(#filter0_d_14_29)">
<rect x="5" y="1" width="440" height="650" rx="5" fill="#111111"/>
<rect x="4.5" y="0.5" width="441" height="651" rx="5.5" stroke="black"/>
</g>
<rect x="15" y="11" width="420" height="630" rx="5" fill="white"/>
<rect x="20" y="16" width="410" height="620" rx="5" fill="#181818"/>
<rect x="25" y="21" width="400" height="610" rx="5" fill="white"/>
<rect x="30" y="26" width="390" height="600" rx="5" fill="#181818"/>
<path d="M224 117.2C224 116.8 224.15 116.5 224.45 116.3C224.75 116.1 225.25 116 225.95 116H288.65C289.15 116 289.55 116.1 289.85 116.3C290.15 116.4 290.3 116.6 290.3 116.9C290.3 117.2 290.15 117.45 289.85 117.65C289.65 117.85 289.2 118.1 288.5 118.4L285.35 119.6C281.75 121.1 277.6 124.15 272.9 128.75C268.3 133.25 263.65 138.5 258.95 144.5C254.25 150.4 250 156.3 246.2 162.2L161 296.3C160 298 159.1 299.75 158.3 301.55C157.5 303.25 156.7 305.4 155.9 308L152.15 320.15C151.55 322.05 150.55 323.5 149.15 324.5C147.85 325.5 146.15 326 144.05 326H114.05C112.25 326 110.95 325.5 110.15 324.5C109.35 323.5 109.25 321.85 109.85 319.55L114.2 302.9C114.6 301.4 114.85 299.9 114.95 298.4C115.05 296.8 115.1 295.6 115.1 294.8C115.2 292.3 115.3 288.1 115.4 282.2C115.6 276.2 115.75 269.05 115.85 260.75C116.05 252.45 116.25 243.45 116.45 233.75C116.65 224.05 116.8 214.2 116.9 204.2C117.1 194.2 117.3 184.6 117.5 175.4C117.7 166.1 117.85 157.65 117.95 150.05C118.05 142.45 118.1 136.3 118.1 131.6C118.3 127.8 118 125.1 117.2 123.5C116.5 121.9 115.05 120.9 112.85 120.5L104.3 118.55C103.6 118.35 103.1 118.15 102.8 117.95C102.5 117.75 102.35 117.5 102.35 117.2C102.35 116.7 102.55 116.4 102.95 116.3C103.35 116.1 103.85 116 104.45 116H188.75C189.35 116 189.75 116.1 189.95 116.3C190.25 116.5 190.4 116.7 190.4 116.9C190.4 117.2 190.25 117.5 189.95 117.8C189.75 118 189.25 118.2 188.45 118.4L175.7 120.5C172.8 120.9 170.7 122.15 169.4 124.25C168.1 126.35 167.4 129.2 167.3 132.8C167.1 138.1 166.85 144.2 166.55 151.1C166.35 157.9 166.1 165.4 165.8 173.6C165.6 181.8 165.35 190.55 165.05 199.85C164.75 209.15 164.4 218.85 164 228.95C163.6 239.05 163.2 249.55 162.8 260.45C162.5 271.25 162.1 282.25 161.6 293.45L152.6 304.1L243.65 160.4C247.95 153.6 249.95 147.4 249.65 141.8C249.35 136.2 247.5 131.5 244.1 127.7C240.7 123.8 236.5 121.2 231.5 119.9L225.95 118.55C224.65 118.35 224 117.9 224 117.2Z" fill="white"/>
<path d="M215.1 411.25H248.55C256.55 411.25 263.95 409 270.75 404.5C277.55 399.9 282.05 391.95 284.25 380.65C284.35 379.95 284.55 379.45 284.85 379.15C285.15 378.75 285.45 378.55 285.75 378.55C286.25 378.55 286.6 378.75 286.8 379.15C287 379.55 287.15 380.15 287.25 380.95L292.2 443.65C292.3 445.05 292.3 446 292.2 446.5C292.2 447 291.95 447.3 291.45 447.4C291.05 447.5 290.7 447.45 290.4 447.25C290.1 446.95 289.75 446.35 289.35 445.45C285.45 434.85 280.35 427.05 274.05 422.05C267.85 416.95 259.05 414.4 247.65 414.4H213.6L215.1 411.25ZM240.75 523H128.85C128.25 523 127.8 522.95 127.5 522.85C127.2 522.65 127.05 522.35 127.05 521.95C127.05 521.55 127.2 521.25 127.5 521.05C127.8 520.75 128.3 520.6 129 520.6L141.9 518.8C143.8 518.6 145.25 517.85 146.25 516.55C147.25 515.25 148.05 513.65 148.65 511.75C149.35 509.25 150.75 504.25 152.85 496.75C154.95 489.25 157.4 480.15 160.2 469.45C163.1 458.75 166.2 447.35 169.5 435.25C172.9 423.05 176.2 410.9 179.4 398.8C182.7 386.6 185.75 375.25 188.55 364.75C191.35 354.25 193.7 345.45 195.6 338.35C197.6 331.15 198.85 326.5 199.35 324.4C199.75 322.1 199.65 320.4 199.05 319.3C198.45 318.2 197.05 317.5 194.85 317.2L182.25 315.55C181.45 315.45 180.9 315.3 180.6 315.1C180.4 314.8 180.3 314.5 180.3 314.2C180.3 313.8 180.45 313.5 180.75 313.3C181.05 313.1 181.5 313 182.1 313H312.75C318.45 313 322.5 312.25 324.9 310.75C327.3 309.25 329.05 308.5 330.15 308.5C331.45 308.5 332 309.4 331.8 311.2L329.1 370.9C329 372 328.9 372.85 328.8 373.45C328.7 373.95 328.35 374.2 327.75 374.2C327.35 374.2 326.95 374 326.55 373.6C326.25 373.1 325.95 372.35 325.65 371.35C321.75 355.95 317.85 344.3 313.95 336.4C310.05 328.5 305.5 323.15 300.3 320.35C295.1 317.55 288.5 316.15 280.5 316.15H252.6C251.8 318.65 250.4 323.7 248.4 331.3C246.4 338.8 243.95 347.95 241.05 358.75C238.15 369.45 235.05 381 231.75 393.4C228.55 405.7 225.3 418.05 222 430.45C218.8 442.75 215.8 454.25 213 464.95C210.2 475.65 207.8 484.75 205.8 492.25C203.9 499.75 202.65 504.75 202.05 507.25C201.35 510.55 201.15 513.15 201.45 515.05C201.85 516.85 202.95 518.1 204.75 518.8C206.55 519.5 209.25 519.85 212.85 519.85H230.25C238.45 519.85 246.35 517.95 253.95 514.15C261.55 510.35 269.3 504.05 277.2 495.25C285.2 486.35 293.85 474.45 303.15 459.55C304.15 458.05 304.85 457.3 305.25 457.3C306.05 457.3 306.35 458.15 306.15 459.85C305.15 471.65 303.45 481.75 301.05 490.15C298.75 498.55 295.75 505.4 292.05 510.7C288.45 516 284.15 519.9 279.15 522.4C274.25 524.8 268.75 526 262.65 526C258.95 526 255.4 525.5 252 524.5C248.7 523.5 244.95 523 240.75 523Z" fill="white"/>
<line x1="18" y1="1" x2="18" y2="651" stroke="white" stroke-width="6"/>
<defs>
<filter id="filter0_d_14_29" x="0" y="0" width="450" height="660" filterUnits="userSpaceOnUse" color-interpolation-filters="sRGB">
<feFlood flood-opacity="0" result="BackgroundImageFix"/>
<feColorMatrix in="SourceAlpha" type="matrix" values="0 0 0 0 0 0 0 0 0 0 0 0 0 0 0 0 0 0 127 0" result="hardAlpha"/>
<feOffset dy="4"/>
<feGaussianBlur stdDeviation="2"/>
<feComposite in2="hardAlpha" operator="out"/>
<feColorMatrix type="matrix" values="0 0 0 0 0 0 0 0 0 0 0 0 0 0 0 0 0 0 0.25 0"/>
<feBlend mode="normal" in2="BackgroundImageFix" result="effect1_dropShadow_14_29"/>
<feBlend mode="normal" in="SourceGraphic" in2="effect1_dropShadow_14_29" result="shape"/>
</filter>
</defs>
</svg>
